<svg xmlns="http://www.w3.org/2000/svg" xmlns:xlink="http://www.w3.org/1999/xlink" width="24" height="24" viewBox="0 0 24 24">
  <defs>
    <clipPath id="clip-path">
      <rect id="Rectángulo_30" data-name="Rectángulo 30" width="24" height="24" transform="translate(1849 2806)" fill="#fff" stroke="#707070" stroke-width="1"/>
    </clipPath>
  </defs>
  <g id="Enmascarar_grupo_33" data-name="Enmascarar grupo 33" transform="translate(-1849 -2806)" clip-path="url(#clip-path)">
    <path id="favorite_24dp_E8EAED_FILL0_wght200_GRAD0_opsz24" d="M128.13-800.019a1.5,1.5,0,0,1-.523-.1,1.251,1.251,0,0,1-.455-.292l-1.039-.938a57.466,57.466,0,0,1-4.264-4.269A6.439,6.439,0,0,1,120-809.926a3.939,3.939,0,0,1,1.173-2.9,3.939,3.939,0,0,1,2.9-1.173,4.871,4.871,0,0,1,2.063.5,5.2,5.2,0,0,1,2.011,1.888,5.2,5.2,0,0,1,2.011-1.888,4.871,4.871,0,0,1,2.063-.5,3.939,3.939,0,0,1,2.9,1.173,3.939,3.939,0,0,1,1.173,2.9,6.5,6.5,0,0,1-1.924,4.4q-1.924,2.112-4.211,4.185l-1.034.933a1.238,1.238,0,0,1-.464.292A1.57,1.57,0,0,1,128.13-800.019Zm-.425-10.652a5.73,5.73,0,0,0-1.69-1.867,3.551,3.551,0,0,0-1.941-.556,3.071,3.071,0,0,0-2.263.905,3.07,3.07,0,0,0-.905,2.263,4.323,4.323,0,0,0,.568,2.057A12.115,12.115,0,0,0,123-805.71a29.33,29.33,0,0,0,2.2,2.261q1.242,1.156,2.586,2.38a.533.533,0,0,0,.365.139.533.533,0,0,0,.365-.139q1.344-1.224,2.586-2.38a29.335,29.335,0,0,0,2.2-2.261,12.115,12.115,0,0,0,1.524-2.16,4.324,4.324,0,0,0,.568-2.057,3.07,3.07,0,0,0-.905-2.263,3.071,3.071,0,0,0-2.263-.905,3.551,3.551,0,0,0-1.941.556,5.73,5.73,0,0,0-1.69,1.867.459.459,0,0,1-.193.183.549.549,0,0,1-.249.061.55.55,0,0,1-.249-.061A.459.459,0,0,1,127.7-810.671ZM128.147-806.986Z" transform="translate(1732.853 3625.01)" fill="#3d3d3d"/>
    <path id="favorite_24dp_E8EAED_FILL1_wght200_GRAD0_opsz24" d="M128.13-800.019a1.5,1.5,0,0,1-.523-.1,1.251,1.251,0,0,1-.455-.292l-1.039-.938a57.465,57.465,0,0,1-4.264-4.269A6.439,6.439,0,0,1,120-809.927a3.939,3.939,0,0,1,1.173-2.9,3.939,3.939,0,0,1,2.9-1.173,4.87,4.87,0,0,1,2.063.5,5.2,5.2,0,0,1,2.011,1.888,5.2,5.2,0,0,1,2.011-1.888,4.87,4.87,0,0,1,2.063-.5,3.939,3.939,0,0,1,2.9,1.173,3.939,3.939,0,0,1,1.173,2.9,6.5,6.5,0,0,1-1.924,4.4q-1.924,2.112-4.211,4.185l-1.034.933a1.238,1.238,0,0,1-.464.292A1.57,1.57,0,0,1,128.13-800.019Z" transform="translate(1732.853 3625.01)" fill="#e8eaed" opacity="0"/>
  </g>
</svg>
