<svg xmlns="http://www.w3.org/2000/svg" xmlns:xlink="http://www.w3.org/1999/xlink" width="24" height="24" viewBox="0 0 24 24">
  <defs>
    <clipPath id="clip-path">
      <rect id="Rectángulo_28" data-name="Rectángulo 28" width="24" height="24" transform="translate(1849 2806)" fill="#346bc3" stroke="#707070" stroke-width="1"/>
    </clipPath>
  </defs>
  <g id="Enmascarar_grupo_31" data-name="Enmascarar grupo 31" transform="translate(-1849 -2806)" clip-path="url(#clip-path)">
    <path id="home_24dp_E8EAED_FILL1_wght200_GRAD0_opsz24" d="M200-757.3v-10.923a2.015,2.015,0,0,1,.216-.914,1.943,1.943,0,0,1,.6-.71l6.767-5.124a1.946,1.946,0,0,1,1.214-.406,1.978,1.978,0,0,1,1.222.406l6.767,5.124a1.943,1.943,0,0,1,.6.71,2.015,2.015,0,0,1,.216.914V-757.3a1.206,1.206,0,0,1-.376.881,1.206,1.206,0,0,1-.881.376h-4.253a.981.981,0,0,1-.723-.292.982.982,0,0,1-.292-.723v-5.993a.982.982,0,0,0-.292-.723.983.983,0,0,0-.723-.292H207.54a.983.983,0,0,0-.723.292.982.982,0,0,0-.292.723v5.993a.982.982,0,0,1-.292.723.981.981,0,0,1-.723.292h-4.253a1.206,1.206,0,0,1-.881-.376A1.206,1.206,0,0,1,200-757.3Z" transform="translate(1652.203 3583.713)" fill="#346bc3" opacity="0"/>
    <path id="home_24dp_E8EAED_FILL0_wght200_GRAD0_opsz24" d="M201.257-757.3h4.64v-6.38a.983.983,0,0,1,.292-.723.983.983,0,0,1,.723-.291h3.77a.983.983,0,0,1,.723.291.983.983,0,0,1,.292.723v6.38h4.64v-10.924a.727.727,0,0,0-.085-.351.938.938,0,0,0-.23-.278l-6.767-5.1a.675.675,0,0,0-.459-.169.675.675,0,0,0-.459.169l-6.767,5.1a.938.938,0,0,0-.23.278.728.728,0,0,0-.085.351Zm-1.257,0v-10.924a2.014,2.014,0,0,1,.216-.914,1.943,1.943,0,0,1,.6-.71l6.767-5.124a1.947,1.947,0,0,1,1.214-.406,1.979,1.979,0,0,1,1.222.406l6.767,5.124a1.943,1.943,0,0,1,.6.71,2.015,2.015,0,0,1,.216.914V-757.3a1.207,1.207,0,0,1-.376.881,1.206,1.206,0,0,1-.881.376h-4.882a.982.982,0,0,1-.723-.292.982.982,0,0,1-.292-.723v-6.38h-3.287v6.38a.982.982,0,0,1-.292.723.981.981,0,0,1-.723.292h-4.882a1.206,1.206,0,0,1-.881-.376A1.207,1.207,0,0,1,200-757.3ZM208.8-765.737Z" transform="translate(1652.203 3583.713)" fill="#3d3d3d"/>
  </g>
</svg>
