<svg xmlns="http://www.w3.org/2000/svg" width="20.833" height="13.722" viewBox="0 0 20.833 13.722">
  <path id="menu_24dp_E8EAED_FILL0_wght200_GRAD0_opsz24" d="M160.651-677.048a.63.63,0,0,1-.464-.187A.632.632,0,0,1,160-677.7a.628.628,0,0,1,.187-.464.631.631,0,0,1,.464-.187h19.531a.629.629,0,0,1,.464.188.631.631,0,0,1,.187.465.628.628,0,0,1-.187.464.631.631,0,0,1-.464.186Zm0-6.21a.629.629,0,0,1-.464-.187.631.631,0,0,1-.187-.465.628.628,0,0,1,.187-.464.631.631,0,0,1,.464-.187h19.531a.629.629,0,0,1,.464.188.631.631,0,0,1,.187.464.628.628,0,0,1-.187.464.631.631,0,0,1-.464.187Zm0-6.21a.63.63,0,0,1-.464-.188.631.631,0,0,1-.187-.464.628.628,0,0,1,.187-.464.631.631,0,0,1,.464-.187h19.531a.629.629,0,0,1,.464.188.631.631,0,0,1,.187.464.628.628,0,0,1-.187.464.631.631,0,0,1-.464.187Z" transform="translate(-160 690.77)" fill="#fff"/>
</svg>
