<svg xmlns="http://www.w3.org/2000/svg" width="15.932" height="20.922" viewBox="0 0 15.932 20.922">
  <path id="notifications_24dp_E8EAED_FILL0_wght200_GRAD0_opsz24" d="M200.569-822.054a.55.55,0,0,1-.405-.164.552.552,0,0,1-.164-.406.549.549,0,0,1,.164-.405.552.552,0,0,1,.405-.163h1.269v-9.017a5.944,5.944,0,0,1,1.411-3.923,6,6,0,0,1,3.578-2.109v-.622a1.1,1.1,0,0,1,.331-.806,1.094,1.094,0,0,1,.8-.332,1.1,1.1,0,0,1,.807.332,1.094,1.094,0,0,1,.334.806v.622a6,6,0,0,1,3.578,2.109,5.944,5.944,0,0,1,1.411,3.923v9.017h1.269a.55.55,0,0,1,.405.164.551.551,0,0,1,.164.406.549.549,0,0,1-.164.405.551.551,0,0,1-.405.163ZM207.966-830.2Zm0,11.117a1.763,1.763,0,0,1-1.3-.54,1.774,1.774,0,0,1-.537-1.3H209.8a1.765,1.765,0,0,1-.541,1.3A1.781,1.781,0,0,1,207.962-819.078Zm-4.986-4.114h9.979v-9.017a4.811,4.811,0,0,0-1.458-3.532,4.81,4.81,0,0,0-3.532-1.458,4.81,4.81,0,0,0-3.532,1.458,4.811,4.811,0,0,0-1.458,3.532Z" transform="translate(-200 840)" fill="#fff"/>
</svg>
